<?xml version="1.0" encoding="UTF-8" standalone="no"?>
<!-- Generator: Adobe Illustrator 24.0.0, SVG Export Plug-In . SVG Version: 6.00 Build 0)  -->

<svg
   version="1.1"
   id="Layer_1"
   x="0px"
   y="0px"
   viewBox="0 0 500 500"
   style="enable-background:new 0 0 500 500;"
   xml:space="preserve"
   sodipodi:docname="code.svg"
   inkscape:version="1.1 (c4e8f9e, 2021-05-24)"
   xmlns:inkscape="http://www.inkscape.org/namespaces/inkscape"
   xmlns:sodipodi="http://sodipodi.sourceforge.net/DTD/sodipodi-0.dtd"
   xmlns="http://www.w3.org/2000/svg"
   xmlns:svg="http://www.w3.org/2000/svg"><defs
   id="defs831" /><sodipodi:namedview
   id="namedview829"
   pagecolor="#ffffff"
   bordercolor="#666666"
   borderopacity="1.0"
   inkscape:pageshadow="2"
   inkscape:pageopacity="0.0"
   inkscape:pagecheckerboard="0"
   showgrid="false"
   inkscape:zoom="1.506"
   inkscape:cx="311.08898"
   inkscape:cy="258.30013"
   inkscape:window-width="1680"
   inkscape:window-height="950"
   inkscape:window-x="0"
   inkscape:window-y="25"
   inkscape:window-maximized="0"
   inkscape:current-layer="Layer_1" />
<style
   type="text/css"
   id="style824">
	.st0{font-family:'Courier';}
	.st1{font-size:550px;}
</style>
<g
   aria-label="{}"
   transform="matrix(1 0 0 1 -80.0486 375.0753)"
   id="text826"
   class="st0 st1"
   style="font-size:550px;font-family:Courier"><path
     d="m 154.75098,-123.80371 q 26.85547,8.32519 37.59765,27.392577 10.74219,18.798828 10.74219,63.378906 V 6.7138672 q 0,27.9296878 5.9082,37.3291018 5.90821,9.399414 21.48438,13.159179 3.49121,0.805664 9.93652,1.611329 23.63281,3.222656 23.63281,22.021484 0,9.130859 -6.17675,14.233398 -6.17676,5.102541 -17.45606,5.102541 -45.38574,0 -63.91601,-22.558595 Q 157.97363,55.053711 157.97363,-7.2509766 V -38.40332 q 0,-31.420899 -8.8623,-44.311524 -8.86231,-13.159179 -43.50586,-19.067386 -10.473634,-1.61132 -15.039064,-6.44531 -4.565429,-5.10254 -4.565429,-15.57617 0,-8.59375 3.759765,-13.42774 3.759766,-4.83398 12.084958,-6.98242 4.02832,-0.80566 11.54785,-2.68554 44.58008,-9.39942 44.58008,-61.49903 v -31.95801 q 0,-62.03613 18.79883,-84.86328 18.79883,-22.82714 64.18457,-22.82714 11.01074,0 16.91895,5.37109 6.17675,5.10254 6.17675,14.2334 0,18.53027 -23.63281,21.48437 -4.56543,0.80567 -7.25097,1.07422 -16.91895,3.22266 -23.63282,13.42774 -6.44531,9.93652 -6.44531,38.94043 v 39.47753 q 0,44.84864 -10.74219,63.64747 -10.74218,18.79882 -37.59765,26.58691 z"
     style="font-size:550px;font-family:Courier"
     id="path913" /><path
     d="m 505.08789,-123.80371 q -27.12402,-7.78809 -38.13477,-26.58691 -10.74218,-19.06739 -10.74218,-63.64747 v -39.47753 q 0,-28.4668 -5.90821,-38.13477 -5.9082,-9.93652 -20.94726,-13.69629 -3.49121,-0.80566 -10.47363,-1.61133 -23.09571,-3.22265 -23.09571,-20.41015 0,-10.20508 5.63965,-15.30762 5.63965,-5.37109 16.91895,-5.37109 45.38574,0 64.18457,22.82714 18.79882,22.82715 18.79882,84.86328 v 31.95801 q 0,52.36817 43.50586,61.49903 8.3252,1.61132 12.62207,2.68554 8.59375,2.417 12.35352,7.25098 4.02832,4.56543 4.02832,13.15918 0,9.13086 -4.29687,14.50195 -4.02832,5.3711 -12.62207,6.98242 -2.95411,0.53711 -8.3252,1.61133 -47.26563,9.130862 -47.26563,62.30469 v 31.1523434 q 0,62.3046876 -18.53027,84.8632816 -18.53027,22.558595 -63.91601,22.558595 -11.54786,0 -17.45606,-5.371095 -5.63965,-5.102539 -5.63965,-15.576172 0,-17.1875 23.09571,-20.410156 4.83398,-0.53711 6.98242,-1.074219 17.45605,-2.954102 23.90136,-12.353516 6.44532,-9.399414 6.44532,-38.6718748 V -33.032227 q 0,-44.042968 10.74218,-63.110351 11.01075,-19.335942 38.13477,-27.661132 z"
     style="font-size:550px;font-family:Courier"
     id="path915" /></g>
</svg>
