<?xml version="1.0" encoding="UTF-8" standalone="no"?>
<!-- Generator: Adobe Illustrator 24.0.0, SVG Export Plug-In . SVG Version: 6.00 Build 0)  -->

<svg
   version="1.1"
   id="Layer_1"
   x="0px"
   y="0px"
   viewBox="0 0 500 500"
   style="enable-background:new 0 0 500 500;"
   xml:space="preserve"
   sodipodi:docname="text.svg"
   inkscape:version="1.1 (c4e8f9e, 2021-05-24)"
   xmlns:inkscape="http://www.inkscape.org/namespaces/inkscape"
   xmlns:sodipodi="http://sodipodi.sourceforge.net/DTD/sodipodi-0.dtd"
   xmlns="http://www.w3.org/2000/svg"
   xmlns:svg="http://www.w3.org/2000/svg"><defs
   id="defs5868" /><sodipodi:namedview
   id="namedview5866"
   pagecolor="#ffffff"
   bordercolor="#666666"
   borderopacity="1.0"
   inkscape:pageshadow="2"
   inkscape:pageopacity="0.0"
   inkscape:pagecheckerboard="0"
   showgrid="false"
   inkscape:zoom="0.65638819"
   inkscape:cx="181.29516"
   inkscape:cy="230.0468"
   inkscape:window-width="1243"
   inkscape:window-height="760"
   inkscape:window-x="0"
   inkscape:window-y="25"
   inkscape:window-maximized="0"
   inkscape:current-layer="Layer_1" />
<style
   type="text/css"
   id="style5859">
	.st0{font-family:'Courier';}
	.st1{font-size:640px;}
</style>
<g
   aria-label="T"
   transform="scale(1.0657209,0.93833199)"
   id="text5861"
   style="font-size:681.375px;font-family:Courier;stroke-width:1.11146"
   class="st0 st1"><path
     d="m 109.98593,203.54944 q -0.66541,24.9527 -5.98865,31.93945 -4.990538,6.65405 -19.962156,6.65405 -11.644592,0 -17.63324,-5.98864 -5.655945,-6.32135 -5.655945,-18.29865 0,0 0.332703,-4.99054 0.332703,-5.32324 0.332703,-10.64648 L 64.738371,92.426758 q 0.665405,-12.309998 6.654053,-17.63324 5.988647,-5.655945 18.631347,-5.655945 H 379.14236 q 12.6427,0 18.63135,5.655945 5.98865,5.323242 6.32135,17.63324 l 3.65973,109.791872 q 0,5.98865 0.3327,11.31189 0.3327,5.32324 0.3327,4.99054 0,11.97729 -6.32135,17.96594 -6.32135,5.65594 -18.96405,5.65594 -13.3081,0 -18.29864,-6.65405 -4.99054,-6.98675 -5.65595,-31.93945 l -3.32702,-86.50269 h -95.48566 v 299.76508 h 51.23621 12.9754 q 13.97351,0 20.29486,5.65594 6.32135,5.32325 6.32135,17.30054 0,11.64459 -5.98865,17.96594 -5.98864,5.98865 -17.30053,5.98865 H 141.25998 q -11.31189,0 -17.30054,-5.98865 -5.98865,-6.32135 -5.98865,-17.96594 0,-12.31 6.32135,-17.63324 6.65406,-5.32324 22.29108,-5.32324 h 10.97919 51.2362 V 117.04675 h -95.48565 z"
     style="font-size:681.375px;font-family:Courier;stroke-width:1.11146"
     id="path931" /></g>
<g
   aria-label="Lorem ipsum"
   transform="matrix(1 0 0 1 887 -76)"
   id="text5863"
   style="font-size:12px;font-family:Courier"
   class="st0"><path
     d="m 5.8066406,-2.3613281 q 0,-0.4394532 0.087891,-0.5683594 0.087891,-0.1289063 0.3339844,-0.1289063 0.2109375,0 0.3164063,0.1113282 0.1054687,0.1054687 0.1054687,0.3339843 v 0.2519532 1.92773435 q 0,0.20507812 -0.1113281,0.32226563 Q 6.4277344,0 6.2285156,0 H 1.03125 0.75585937 Q 0.54492187,0 0.43945313,-0.10546875 0.33398438,-0.2109375 0.33398438,-0.421875 q 0,-0.234375 0.12304687,-0.31640625 Q 0.5859375,-0.82617188 1.03125,-0.82617188 H 1.7636719 V -6.1054687 H 1.03125 q -0.43359375,0 -0.56835937,-0.087891 -0.12890625,-0.09375 -0.12890625,-0.3339843 0,-0.2167969 0.10546875,-0.3164063 0.11132812,-0.1054687 0.33984374,-0.1054687 H 1.03125 3.6738281 3.9492188 q 0.2109374,0 0.3222656,0.1054687 0.1113281,0.1054688 0.1113281,0.3164063 0,0.2402343 -0.1347656,0.3339843 -0.1289063,0.087891 -0.5742188,0.087891 h -0.984375 v 5.27929682 h 3.1171875 z"
     style="font-size:12px;font-family:Courier"
     id="path910" /><path
     d="m 10.792969,-0.67382812 q 0.902344,0 1.476562,-0.56835938 0.580078,-0.5742187 0.580078,-1.4589844 0,-0.8847656 -0.580078,-1.4589843 -0.580078,-0.5800782 -1.476562,-0.5800782 -0.8964846,0 -1.4765627,0.5800782 -0.5742188,0.5742187 -0.5742188,1.4589843 0,0.890625 0.5742188,1.4589844 0.5742187,0.56835938 1.4765627,0.56835938 z m 3.076172,-2.02734378 q 0,1.2539063 -0.855469,2.05078128 -0.855469,0.79687499 -2.220703,0.79687499 -1.3593752,0 -2.214844,-0.79687499 -0.8554688,-0.79687498 -0.8554688,-2.05078128 0,-1.2539062 0.8554688,-2.0449218 0.8554688,-0.796875 2.214844,-0.796875 1.359375,0 2.214844,0.796875 0.861328,0.7968749 0.861328,2.0449218 z"
     style="font-size:12px;font-family:Courier"
     id="path912" /><path
     d="m 17.414062,-0.82617188 h 1.945313 q 0.228516,0 0.333984,0.0996094 0.111328,0.09375 0.111328,0.3046875 0,0.24023438 -0.105468,0.33398438 Q 19.599609,0 19.324219,0 H 15.492188 Q 15.263672,0 15.146484,-0.10546875 15.029297,-0.2109375 15.029297,-0.421875 q 0,-0.20507812 0.117187,-0.3046875 0.123047,-0.0996094 0.375,-0.0996094 h 1.019532 V -4.5820312 h -0.398438 q -0.568359,0 -0.708984,-0.087891 -0.140625,-0.09375 -0.140625,-0.3339843 0,-0.2050782 0.111328,-0.3046875 0.117187,-0.1054688 0.351562,-0.1054688 h 1.335938 q 0.158203,0 0.240234,0.064453 0.08203,0.058594 0.08203,0.1757813 v 0.9960937 Q 17.970703,-4.875 18.574219,-5.2148437 19.177734,-5.5546875 19.875,-5.5546875 q 0.521484,0 0.84375,0.2109375 0.322266,0.2109375 0.322266,0.5449219 0,0.2167969 -0.164063,0.3867187 -0.158203,0.1640625 -0.351562,0.1640625 -0.134766,0 -0.457032,-0.1757812 Q 19.751953,-4.6054687 19.5,-4.6054687 q -0.457031,0 -0.966797,0.328125 -0.503906,0.3222656 -1.119141,1.0253906 z"
     style="font-size:12px;font-family:Courier"
     id="path914" /><path
     d="m 23.203125,-2.4492188 q 0.04687,0.8437501 0.568359,1.3066407 0.527344,0.45703123 1.435547,0.45703123 0.685547,0 1.494141,-0.36328123 0.808594,-0.3691406 0.978515,-0.3691406 0.175782,0 0.292969,0.1113281 0.117188,0.1113281 0.117188,0.2753906 0,0.16992187 -0.123047,0.31054688 -0.123047,0.140625 -0.392578,0.27539062 -0.585938,0.28710938 -1.212891,0.43945312 -0.621094,0.15234375 -1.236328,0.15234375 -1.335938,0 -2.138672,-0.76757812 -0.802734,-0.77343745 -0.802734,-2.04492185 0,-1.2949219 0.849609,-2.0976563 0.849609,-0.8027343 2.214844,-0.8027343 1.236328,0 2.050781,0.75 0.814453,0.75 0.814453,1.8164062 0,0.328125 -0.140625,0.4394531 -0.134765,0.1113281 -0.74414,0.1113281 h -0.08789 z m 0.0293,-0.7675781 h 3.814453 q -0.08789,-0.6972656 -0.585938,-1.1191406 -0.492187,-0.4277344 -1.21289,-0.4277344 -0.779297,0 -1.3125,0.4101563 -0.533203,0.4101562 -0.703125,1.1367187 z"
     style="font-size:12px;font-family:Courier"
     id="path916" /><path
     d="m 34.552734,-3.2636719 q 0,-0.8261718 -0.152343,-1.1132812 -0.146485,-0.2929688 -0.509766,-0.2929688 -0.433594,0 -0.691406,0.375 -0.251953,0.375 -0.251953,1.03125 v 2.43750002 h 0.105468 q 0.357422,0 0.47461,0.0878906 0.123047,0.0820313 0.123047,0.31640625 0,0.2109375 -0.09961,0.31640625 Q 33.451172,0 33.246094,0 H 32.501953 Q 32.25,0 32.15625,-0.1171875 32.068359,-0.234375 32.068359,-0.62109375 V -0.79101562 -3.2636719 -3.7207031 q 0,-0.4394531 -0.199218,-0.6914063 -0.199219,-0.2578125 -0.544922,-0.2578125 -0.263672,0 -0.486328,0.1582032 -0.216797,0.1523437 -0.375,0.4570312 v 3.22851562 h 0.216796 q 0.351563,0 0.47461,0.0878906 0.123047,0.0878906 0.123047,0.31640625 0,0.24023438 -0.09961,0.33398438 Q 31.078125,0 30.796875,0 h -1.558594 q -0.228515,0 -0.339844,-0.09960937 -0.105468,-0.10546876 -0.105468,-0.32226563 0,-0.234375 0.134765,-0.31640625 0.140625,-0.0878906 0.539063,-0.0878906 h 0.117187 V -4.5820312 h -0.105468 q -0.410157,0 -0.5625,-0.09375 -0.146485,-0.09375 -0.146485,-0.328125 0,-0.2050782 0.117188,-0.3046875 0.117187,-0.1054688 0.351562,-0.1054688 h 0.896485 q 0.193359,0 0.251953,0.070312 0.06445,0.064453 0.07617,0.28125 0.240234,-0.2578125 0.515625,-0.3808594 0.27539,-0.1230468 0.621093,-0.1230468 0.410157,0 0.673828,0.1816406 0.269532,0.1757812 0.398438,0.5390625 0.246094,-0.3691406 0.568359,-0.5449219 0.322266,-0.1757812 0.738282,-0.1757812 0.755859,0 1.101562,0.4921875 0.351563,0.4921875 0.351563,1.5937499 v 2.65429692 h 0.09375 q 0.363281,0 0.486328,0.0878906 0.123047,0.0878906 0.123047,0.31640625 0,0.2109375 -0.105469,0.31640625 Q 35.923828,0 35.71875,0 H 35.009766 Q 34.775391,0 34.664062,-0.140625 34.552734,-0.28125 34.552734,-0.5859375 Z"
     style="font-size:12px;font-family:Courier"
     id="path918" /><path
     d="m 46.230469,-7.1015625 q 0,-0.6328125 0.111328,-0.796875 0.117187,-0.1640625 0.492187,-0.1640625 0.363282,0 0.480469,0.140625 0.117188,0.1347656 0.117188,0.6503906 0,0.5039063 -0.111329,0.6269532 -0.105468,0.1171875 -0.486328,0.1171875 -0.375,0 -0.492187,-0.1113282 Q 46.230469,-6.75 46.230469,-7.1015625 Z m 1.083984,6.27539062 h 1.880859 q 0.228516,0 0.333985,0.0996094 0.111328,0.09375 0.111328,0.3046875 0,0.24023438 -0.105469,0.33398438 Q 49.435547,0 49.160156,0 H 44.613281 Q 44.378906,0 44.261719,-0.10546875 44.144531,-0.2109375 44.144531,-0.421875 q 0,-0.20507812 0.123047,-0.3046875 0.123047,-0.0996094 0.369141,-0.0996094 h 1.787109 V -4.5820312 H 45.28125 q -0.240234,0 -0.369141,-0.1054688 -0.123047,-0.1113281 -0.123047,-0.3164062 0,-0.2050782 0.117188,-0.3046875 0.117187,-0.1054688 0.351562,-0.1054688 h 1.716797 q 0.158203,0 0.246094,0.064453 0.09375,0.064453 0.09375,0.1757813 z"
     style="font-size:12px;font-family:Courier"
     id="path920" /><path
     d="m 52.453125,1.5 h 1.40625 q 0.222656,0 0.333984,0.1054687 0.111328,0.1054688 0.111328,0.3164063 0,0.2285156 -0.111328,0.3222656 -0.105468,0.09375 -0.380859,0.09375 h -2.583984 q -0.234375,0 -0.357422,-0.1054687 -0.117188,-0.1054688 -0.117188,-0.3105469 0,-0.234375 0.146485,-0.328125 Q 51.052734,1.5 51.457031,1.5 h 0.111328 v -6.0820312 h -0.111328 q -0.404297,0 -0.55664,-0.09375 -0.146485,-0.09375 -0.146485,-0.328125 0,-0.2050782 0.117188,-0.3046875 0.123047,-0.1054688 0.357422,-0.1054688 h 0.890625 q 0.175781,0 0.251953,0.058594 0.08203,0.058594 0.08203,0.1816406 v 0.5683594 q 0.398437,-0.4101563 0.878906,-0.6152344 0.486328,-0.2050781 1.042969,-0.2050781 1.177734,0 1.96875,0.796875 0.791016,0.7968749 0.791016,1.9980468 0,1.1542969 -0.75,1.89843753 -0.75,0.74414062 -1.916016,0.74414062 -0.621094,0 -1.142578,-0.21679688 -0.521485,-0.22265625 -0.873047,-0.6328125 z m 1.816406,-2.34960938 q 0.814453,0 1.335938,-0.50976562 0.521484,-0.515625 0.521484,-1.3300781 0,-0.796875 -0.527344,-1.3125 -0.521484,-0.5214844 -1.330078,-0.5214844 -0.808594,0 -1.324219,0.515625 -0.515625,0.515625 -0.515625,1.3183594 0,0.8085937 0.509766,1.3242187 0.515625,0.51562502 1.330078,0.51562502 z"
     style="font-size:12px;font-family:Courier"
     id="path922" /><path
     d="m 58.605469,-0.421875 v -1.0429687 q 0,-0.2578125 0.09375,-0.3691407 0.09961,-0.1113281 0.316406,-0.1113281 0.240234,0 0.380859,0.328125 0.09375,0.1992188 0.169922,0.2988281 0.246094,0.3164063 0.726563,0.50976565 0.480468,0.1875 1.060547,0.1875 0.621093,0 0.996093,-0.25195313 0.375,-0.25195312 0.375,-0.66210932 0,-0.4160157 -0.304687,-0.5917969 -0.298828,-0.1757813 -1.03125,-0.1757813 h -0.322266 q -1.195312,0 -1.822265,-0.4160156 -0.626954,-0.4160156 -0.626954,-1.2070313 0,-0.7734374 0.609375,-1.2011718 0.615235,-0.4277344 1.722657,-0.4277344 0.451172,0 0.919922,0.1289063 0.46875,0.1230468 0.492187,0.1230468 0.06445,0 0.246094,-0.1113281 0.18164,-0.1171875 0.357422,-0.1171875 0.199218,0 0.292968,0.1464844 0.09961,0.1464844 0.09961,0.4394531 v 0.6855469 q 0,0.3105468 -0.09375,0.4511718 -0.09375,0.1347657 -0.298828,0.1347657 -0.175782,0 -0.433594,-0.2988282 -0.181641,-0.2050781 -0.298828,-0.3105468 -0.310547,-0.2871094 -0.66211,-0.4101563 -0.351562,-0.1289062 -0.826171,-0.1289062 -0.550782,0 -0.890625,0.2460937 -0.333985,0.2402344 -0.333985,0.6152344 0,0.3691406 0.345703,0.5273437 0.345703,0.1582032 1.488282,0.1816407 1.21875,0.029297 1.78125,0.4277343 0.5625,0.3925782 0.5625,1.2187501 0,0.79101557 -0.621094,1.26562495 -0.621094,0.47460937 -1.675781,0.47460937 -0.333985,0 -0.744141,-0.06445312 Q 60.246094,0.01171875 59.625,-0.13476562 59.419922,0 59.273437,0.06445312 q -0.146484,0.0703125 -0.246093,0.0703125 -0.205078,0 -0.316407,-0.140625 -0.105468,-0.14648437 -0.105468,-0.41601562 z"
     style="font-size:12px;font-family:Courier"
     id="path924" /><path
     d="m 66.896484,-2.1621094 q 0,0.7382813 0.310547,1.078125 0.310547,0.33984378 0.984375,0.33984378 0.638672,0 1.089844,-0.40429688 0.457031,-0.4042969 0.457031,-1.0136719 v -2.4199218 h -0.802734 q -0.228516,0 -0.333985,-0.09375 -0.09961,-0.099609 -0.09961,-0.3046875 0,-0.2226563 0.111328,-0.328125 0.111328,-0.1054688 0.357422,-0.1054688 h 1.248047 q 0.222656,0 0.310547,0.099609 0.09375,0.09375 0.09375,0.46875 v 4.01953122 h 0.269531 q 0.287109,0 0.410156,0.09375 0.128907,0.09375 0.128907,0.31054687 0,0.2109375 -0.123047,0.31640625 Q 71.191406,0 70.962891,0 h -0.890625 q -0.158204,0 -0.246094,-0.06445312 -0.08789,-0.06445313 -0.08789,-0.17578126 v -0.39843749 q -0.5625,0.43359374 -0.966797,0.59765625 -0.398437,0.15820312 -0.84375,0.15820312 -0.966797,0 -1.453125,-0.50976563 -0.480468,-0.515625 -0.480468,-1.55273437 v -2.6367187 h -0.123047 q -0.398438,0 -0.544922,-0.09375 -0.146485,-0.09375 -0.146485,-0.328125 0,-0.2050782 0.111329,-0.3046875 0.117187,-0.1054688 0.357421,-0.1054688 h 0.884766 q 0.205078,0 0.28125,0.082031 0.08203,0.082031 0.08203,0.3632812 z"
     style="font-size:12px;font-family:Courier"
     id="path926" /><path
     d="m 77.724609,-3.2636719 q 0,-0.8261718 -0.152343,-1.1132812 -0.146485,-0.2929688 -0.509766,-0.2929688 -0.433594,0 -0.691406,0.375 -0.251953,0.375 -0.251953,1.03125 v 2.43750002 h 0.105468 q 0.357422,0 0.47461,0.0878906 0.123047,0.0820313 0.123047,0.31640625 0,0.2109375 -0.09961,0.31640625 Q 76.623047,0 76.417969,0 h -0.744141 q -0.251953,0 -0.345703,-0.1171875 -0.08789,-0.1171875 -0.08789,-0.50390625 V -0.79101562 -3.2636719 -3.7207031 q 0,-0.4394531 -0.199218,-0.6914063 -0.199219,-0.2578125 -0.544922,-0.2578125 -0.263672,0 -0.486328,0.1582032 -0.216797,0.1523437 -0.375,0.4570312 v 3.22851562 h 0.216796 q 0.351563,0 0.47461,0.0878906 0.123047,0.0878906 0.123047,0.31640625 0,0.24023438 -0.09961,0.33398438 Q 74.25,0 73.96875,0 h -1.558594 q -0.228515,0 -0.339844,-0.09960937 -0.105468,-0.10546876 -0.105468,-0.32226563 0,-0.234375 0.134765,-0.31640625 0.140625,-0.0878906 0.539063,-0.0878906 h 0.117187 V -4.5820312 h -0.105468 q -0.410157,0 -0.5625,-0.09375 -0.146485,-0.09375 -0.146485,-0.328125 0,-0.2050782 0.117188,-0.3046875 0.117187,-0.1054688 0.351562,-0.1054688 h 0.896485 q 0.193359,0 0.251953,0.070312 0.06445,0.064453 0.07617,0.28125 0.240234,-0.2578125 0.515625,-0.3808594 0.27539,-0.1230468 0.621093,-0.1230468 0.410157,0 0.673828,0.1816406 0.269532,0.1757812 0.398438,0.5390625 0.246094,-0.3691406 0.568359,-0.5449219 0.322266,-0.1757812 0.738282,-0.1757812 0.755859,0 1.101562,0.4921875 0.351563,0.4921875 0.351563,1.5937499 v 2.65429692 h 0.09375 q 0.363281,0 0.486328,0.0878906 0.123047,0.0878906 0.123047,0.31640625 0,0.2109375 -0.105469,0.31640625 Q 79.095703,0 78.890625,0 H 78.181641 Q 77.947266,0 77.835937,-0.140625 77.724609,-0.28125 77.724609,-0.5859375 Z"
     style="font-size:12px;font-family:Courier"
     id="path928" /></g>
</svg>
